<svg xmlns="http://www.w3.org/2000/svg"
    viewBox="0 0 1078.999 848.649">
    <path
        d="M-4835.5-15191.921h-38.058v38.564h-38.561v38.556h-77.116v38.561h-77.12v38.564h-77.121v-38.564h-38.556v-77.116h77.116v-38.564h38.561v-38.552h-77.121v38.552h-77.116v38.564h-308.478v-38.564h-77.454v-38.552h-77.12v38.552h38.56v38.564h77.12v77.116h-38.56v38.564h-77.12v-38.564h-77.117v-38.561h-77.12v-38.556h-38.56v-38.564H-5914.5v-269.913h38.059v-116.014h38.56v-115.681h38.56v-77.116h38.56v-38.561h77.117v-38.556h77.12v-38.564h116.014v38.564h38.561v38.556h154.236v-38.556h38.561v-38.564h115.676v38.564h77.121v38.556h77.12v38.561h38.556v77.116h38.56v115.681h38.561v116.014l38.058,0Zm-423.652-154.232v38.557h115.676v-38.557h38.56v-154.236h-38.56v-38.894h-115.676v38.894h-38.561v154.236Zm-347.371,0v38.557h116.014v-38.557h38.561v-154.236h-38.561v-38.894h-116.014v38.894h-38.56v154.236Z"
        transform="translate(5914.501 15886.325)" fill="currentColor" />
</svg>