<svg xmlns="http://www.w3.org/2000/svg" viewBox="0 0 1080 1041.837">
    <path
        d="M-6333.081-14922h-77.328v-269.749h-38.26v-38.666h154.254v-38.661h38.666v-38.666h38.26v-76.926h38.666v-154.659h-38.666v-38.666h-38.26v-77.328h38.26v-115.592h-76.926v38.662h-77.328v38.666h-76.926v-38.666h-154.659v38.666h-77.332v-38.666h-76.926v-38.662h-77.332v115.592h38.666v77.328h-38.666v38.666h-38.662v154.659h38.662v76.926h38.666v38.666h38.666v38.661h154.258v38.666h-38.666v76.926h-115.592v-38.662h-38.666v-38.264h-38.666v-38.666h-77.328v38.666h38.666v38.264h38.662v77.328h38.666v38.666h154.257V-14922h-77.332v-38.164h-76.926v-38.662h-77.328v-38.665h-38.666v-38.666h-38.264v-38.666h-38.662v-76.926h-38.666v-115.993H-7066v-270.251h38.164v-115.592h38.666v-77.328h38.662v-38.665h38.264v-38.666h38.666v-38.26h77.328v-38.666h115.59v-38.666h308.92v38.666h115.991v38.666h76.926v38.26h38.666v38.666h38.666v38.665h38.662v77.328h38.666v115.592H-5986v270.251h-38.164v115.993h-38.666v76.926H-6101.5l0,38.666h-38.666v38.666h-38.666v38.665h-76.926v38.662h-77.332V-14922Z"
        transform="translate(7066 15963.837)" fill="currentColor" />
</svg>