<svg xmlns="http://www.w3.org/2000/svg"
    viewBox="0 0 1079.999 1080.005">
    <path
        d="M-8325.573-14922h-38.569v0h-38.569v-38.569h-38.573v-38.573h-38.569V-15192h38.569v38.569h38.573v38.573h38.569v38.569h38.569v38.573H-8287v77.144h-38.573V-14922Zm-154.286-115.717h-38.569v-38.573H-8557v-38.569h-38.569v-38.573h-77.143v38.573h-77.143v38.569h-308.571v-38.569h-77.144v-38.573h-38.573V-15192h-38.569v-38.573h-38.573v-38.569h-38.569v-38.573h-38.573v-77.144H-9367v-308.571h38.569v-77.143h38.573v-38.569h38.569v-38.573h38.573v-38.569h38.569v-38.573h38.573v-38.57h77.144V-16002h308.571v38.573h77.143v38.57h77.143v38.573H-8557v38.569h38.573v77.143h38.569v462.857h-38.569v77.146h38.569v192.854ZM-8981.285-15192v38.569H-8827V-15192h77.144v-38.569h77.143v-38.573h38.569v-38.573h38.573v-77.144H-8557V-15462h38.573v-154.284H-8557v-77.144h-38.569v-77.143h-38.573v-38.569h-38.569v-38.573h-77.143v-38.569H-8827v-38.573h-154.285v38.573h-77.143v38.569h-77.144v38.573h-38.573v38.569h-38.569v77.143h-38.573v77.144h-38.569V-15462h38.569v77.143h38.573v77.144h38.569v38.573h38.573v38.573h77.144V-15192Zm540-192.858h-38.569v-308.571h38.569v308.571Z"
        transform="translate(9366.999 16002.001)" fill="currentColor" />
</svg>