<svg xmlns="http://www.w3.org/2000/svg" width="2374.563" height="331.983" fill="#fff"
    viewBox="0 0 2374.563 331.983">
    <path
        d="M-3833.218,122.983v-16.11q2.958-.455,8.545-1.361t7.887-2.724a16.677,16.677,0,0,0,5.258-8.055A39.089,39.089,0,0,0-3810,85.1a146.569,146.569,0,0,1-40.225-8.006,124.616,124.616,0,0,1-41.427-24.064,112.823,112.823,0,0,1-28.129-37.561q-10.4-22.112-10.4-49.266,0-28.292,10.143-51.3a117.869,117.869,0,0,1,27.874-39.43,122.236,122.236,0,0,1,41.682-24.8,147.339,147.339,0,0,1,40.467-8.341,51.143,51.143,0,0,0-1.074-8.321,15.759,15.759,0,0,0-5.7-8.963,39.99,39.99,0,0,0-8.271-5.105,29.948,29.948,0,0,0-8.161-2.836V-199h70v16.111a35.935,35.935,0,0,0-8.107,1.7,33.455,33.455,0,0,0-8.215,3.745q-4.162,2.722-5.587,8.849a57.522,57.522,0,0,0-1.38,11.04,146.935,146.935,0,0,1,38.314,7.986,126.659,126.659,0,0,1,41.172,23.577,114.528,114.528,0,0,1,28.385,37.722q10.484,22.114,10.484,50.406a131.022,131.022,0,0,1-8.865,47.966A110.339,110.339,0,0,1-3702.59,49.29a125.63,125.63,0,0,1-41.257,26.585q-18.432,7.4-42.332,9.041a42.735,42.735,0,0,0,1.215,6.414,18.464,18.464,0,0,0,5.423,9.189,33.314,33.314,0,0,0,7.5,3.971,28.657,28.657,0,0,0,8.819,2.383v16.11Zm-12.746-237.3q-16.024,27.929-16.025,78.9a228.436,228.436,0,0,0,3.495,40.875q3.5,19.215,11,33.547,7.673,14.491,19.435,22.553a45.437,45.437,0,0,0,18.179,7.177V-141.314Q-3832.872-137.137-3845.964-114.322Zm59.413,182.678a46.57,46.57,0,0,0,16.452-6.884,57.494,57.494,0,0,0,19.263-22.309,118.873,118.873,0,0,0,11.082-33.547,237.877,237.877,0,0,0,3.409-42.339,250.686,250.686,0,0,0-2.983-39,120.212,120.212,0,0,0-10.143-33.792,64.554,64.554,0,0,0-19.434-23.775,44.527,44.527,0,0,0-17.646-7.736ZM-3584.191,80.1q-19.18-5.284-32.477-12.439l-11.762,11.382h-14.491l-2.217-83.412h14.661a212.91,212.91,0,0,0,12.616,25.094,122.641,122.641,0,0,0,17.729,23.631,91,91,0,0,0,23.271,17.761q12.872,6.845,30.09,6.845,23.186,0,35.545-10.822a34.692,34.692,0,0,0,12.359-27.259q0-13.505-10.484-22.7t-32.476-15.891q-14.321-4.409-26.339-8.164t-22.589-7.677q-24.379-9.28-36.227-26.536a66.616,66.616,0,0,1-11.848-38.584,58.047,58.047,0,0,1,6.137-25.967,69.518,69.518,0,0,1,17.9-22.385q11.252-9.28,28.811-15.141a119.947,119.947,0,0,1,38.189-5.86,128.324,128.324,0,0,1,37.676,5.365q17.561,5.367,27.617,10.732l10.4-9.756h14.832l1.364,78.7h-14.661q-5.116-12.714-12.019-26a112.52,112.52,0,0,0-14.576-22.085,65.72,65.72,0,0,0-19.263-15.076q-10.911-5.62-25.573-5.621-18.413,0-30.09,9.935t-11.678,24.592q0,13.842,10.143,22.639T-3542-69.124q12.616,4.068,25.743,8.139t23.356,7.814q24.72,9.118,37.591,25.156t12.87,39.808a61.718,61.718,0,0,1-7.33,28.981,67.953,67.953,0,0,1-19.775,23.284,102.253,102.253,0,0,1-31.539,15.792q-17.9,5.535-41.768,5.535A155.083,155.083,0,0,1-3584.191,80.1Zm-734.942-1.545a91.126,91.126,0,0,1-30.941-17.072,77.716,77.716,0,0,1-20.458-26.91q-7.5-16.017-7.5-35.853,0-19.513,6.564-34.714a77.963,77.963,0,0,1,19.69-27.073q12.616-11.381,31.113-17.641t41.341-6.259q23.867,0,42.023,6.259a91.951,91.951,0,0,1,31.113,17.641,74.585,74.585,0,0,1,19.264,26.829,85.391,85.391,0,0,1,6.648,33.821,88.967,88.967,0,0,1-6.562,34.064,74.4,74.4,0,0,1-19.179,27.4,92.643,92.643,0,0,1-32.136,18.7q-18.667,6.5-42.705,6.5A122.984,122.984,0,0,1-4319.133,78.556Zm20.8-146.012A41.2,41.2,0,0,0-4309.5-51.034a86.549,86.549,0,0,0-4.945,21.707,237.886,237.886,0,0,0-1.364,25.934q0,17.724,1.194,29.35a88.258,88.258,0,0,0,5.8,23.332,37.041,37.041,0,0,0,11.252,15.935q7.33,5.852,18.583,5.853a28.618,28.618,0,0,0,17.559-5.446q7.332-5.448,11.593-16.016a91.061,91.061,0,0,0,5.541-22.113,224.568,224.568,0,0,0,1.79-30.243,227.512,227.512,0,0,0-1.705-26.015q-1.705-14.636-5.114-23.089a38.534,38.534,0,0,0-11.336-16.1q-7.245-5.852-18.327-5.853Q-4291.088-73.8-4298.333-67.456ZM-4675.891,59.858q-22.3-24.39-22.3-63.088,0-34.308,24.943-58.86t60.355-24.552a109.779,109.779,0,0,1,26.223,3.008q12.259,3.008,19.578,7.073V-129.73a25.6,25.6,0,0,0-2.558-11.3,20.53,20.53,0,0,0-6.819-8.212,35.461,35.461,0,0,0-13.212-5.121,144.014,144.014,0,0,0-15.939-2.195v-11.87l92.225-4.228,2.562,2.6V43.11a23.071,23.071,0,0,0,2.119,10.407,15.08,15.08,0,0,0,6.865,6.666,32.67,32.67,0,0,0,10.428,2.6q6.866.813,11.274.976V75.63l-84.046,4.716-2.558-2.276V63.11l-1.191-.325q-8.342,8.617-22.56,15.04a69.113,69.113,0,0,1-28.688,6.423Q-4653.589,84.247-4675.891,59.858Zm49.782-112.192q-10.884,18.374-10.883,51.869a129.849,129.849,0,0,0,1.954,23.657,60.437,60.437,0,0,0,6.889,19.1,37.75,37.75,0,0,0,12.669,13.5q7.738,4.877,18.622,4.878,10.375,0,17.178-3.821A50.582,50.582,0,0,0-4567.1,46.688V-45.18a69.967,69.967,0,0,0-3.317-8.292,33.885,33.885,0,0,0-5.867-8.617,30.681,30.681,0,0,0-9.1-6.016,30.579,30.579,0,0,0-12.842-2.6Q-4615.225-70.707-4626.109-52.334ZM-5072.377,73.094q-14-11.155-14-29.557,0-10.585,3.075-17.994a40.61,40.61,0,0,1,8.708-13.108A45.067,45.067,0,0,1-5062.73,3.8a135.093,135.093,0,0,1,14.771-6.348q15.365-5.373,36.881-11.155t31.419-10.341v-15.61q0-4.064-.682-10.731a33.417,33.417,0,0,0-2.9-11.22,21.687,21.687,0,0,0-7.5-8.779q-5.116-3.579-13.472-3.578a33.638,33.638,0,0,0-12.536,2.033,42.541,42.541,0,0,0-8.1,4.146,61.316,61.316,0,0,0,2.907,9.919,37.927,37.927,0,0,1,2.393,12.845,20.727,20.727,0,0,1-1.538,6.909,15.333,15.333,0,0,1-4.448,6.586,29.847,29.847,0,0,1-8.8,5.04q-4.873,1.79-14.96,1.79-14.362,0-21.715-6.586t-7.351-17.153q0-9.107,7.586-16.341a62.265,62.265,0,0,1,18.5-11.952,109.885,109.885,0,0,1,24.72-7.561,138.126,138.126,0,0,1,25.913-2.682,226.889,226.889,0,0,1,30.345,1.87,74.149,74.149,0,0,1,24.891,7.723,42.188,42.188,0,0,1,16.792,16.5q6.224,10.812,6.223,28.21,0,18.374-.768,43.575t-.767,33.171q0,7.317,2.3,11.544a14.4,14.4,0,0,0,7.075,6.341q2.9,1.3,9.121,1.545t11.336.245V75.63a132.629,132.629,0,0,1-17.694,5.691,87.21,87.21,0,0,1-21.607,2.6q-20.927,0-30.794-5.934A29.942,29.942,0,0,1-4978.639,61h-1.02a110.194,110.194,0,0,1-11.184,9.431,64.9,64.9,0,0,1-11.528,6.666,89.482,89.482,0,0,1-15.451,5.366q-7.428,1.788-20.746,1.788Q-5058.377,84.247-5072.377,73.094Zm73.728-75.088a76.694,76.694,0,0,0-15.4,8.4,31.928,31.928,0,0,0-9.921,11.652,36.51,36.51,0,0,0-3.594,16.706q0,12.714,6.073,18.418a21.04,21.04,0,0,0,14.971,5.706q9.411,0,15.483-3.668a43.893,43.893,0,0,0,10.692-9.046l.685-55.253Q-4989.24-5.986-4998.649-1.994Zm-543.768,83.64-63.7-171.393-57.541,171.393h-34.4q-28.471-79.021-43.644-121.7t-25.572-71.624q-3.238-8.781-7.331-12.764a63.665,63.665,0,0,0-10.57-8.049,34.873,34.873,0,0,0-9.8-4.309A87.545,87.545,0,0,0-5807-139v-12.682h129.054v12.357q-11.4,1.3-17.012,2.52a57.16,57.16,0,0,0-8.848,2.521q-3.063,1.3-3.746,2.765a6.284,6.284,0,0,0-.682,2.6,16.132,16.132,0,0,0,.6,4.39q.6,2.114,1.279,4.878,4.091,12.668,16.537,48.074t30.686,87.866L-5604-151.681h36.177l63.693,173.316q14.144-41.782,22.581-68.283t14.229-45.359q3.41-11.545,5.455-19.349a54.386,54.386,0,0,0,2.046-13.5,7.123,7.123,0,0,0-3.321-5.854,31.136,31.136,0,0,0-8.932-4.226,71.814,71.814,0,0,0-12.329-2.358q-7.566-.894-13.179-1.383v-13.007h97.345v13.007a49.044,49.044,0,0,0-10.57,2.2,71.251,71.251,0,0,0-10.4,4.308q-7.841,4.228-11.165,9.269a62.774,62.774,0,0,0-6.052,12.194q-9.376,24.715-28.9,79.186t-40.66,113.167Zm1384.3-2.6V67.176q4.46-.326,8.666-.812a34.963,34.963,0,0,0,7.466-1.625q5.492-1.95,7.466-5.6a20.331,20.331,0,0,0,1.973-9.662V-63.879h-34.606V-81.6h34.606a108.608,108.608,0,0,1,5.285-33.678,83.406,83.406,0,0,1,16.367-29.134q10.74-12.662,28.3-20.451t41.257-7.791q21.139,0,32.732,7.642t11.592,20a33.434,33.434,0,0,1-1.364,8.944,20.416,20.416,0,0,1-4.432,8.292,25.033,25.033,0,0,1-8.012,6.178q-4.433,2.114-13.3,2.115-13.468,0-21.141-8.944t-16.366-29.755q-6.818,2.759-11.08,14.278t-4.263,49.489V-81.6h47.052v17.723h-46.711V48.011q0,6.333,3.069,9.826a17.777,17.777,0,0,0,8.013,5.115,90.835,90.835,0,0,0,10.739,2.517q6.65,1.218,11.934,1.707V79.045Zm-723.86,0V67.176q4.261-.326,8.609-.895a43.389,43.389,0,0,0,7.417-1.545q5.454-1.788,7.5-5.528a20.265,20.265,0,0,0,2.045-9.757V-45.18a19.36,19.36,0,0,0-2.9-10.487,24.353,24.353,0,0,0-6.989-7.4,28.883,28.883,0,0,0-7.758-3.251,57,57,0,0,0-10.314-1.788v-11.87l81.32-4.228,2.556,2.44v23.576h.682a99.412,99.412,0,0,1,24.976-20.406,55.6,55.6,0,0,1,27.533-7.4q15.853,0,25.486,9.349t9.632,24.146a32.345,32.345,0,0,1-8.013,21.707q-8.012,9.35-21.139,9.349-12.445,0-21.054-5.991t-8.609-17.649a35.515,35.515,0,0,1,.853-8.823q.853-3.159,1.533-5.91-7.841.321-16.537,5.158a53.554,53.554,0,0,0-15.343,12.89V47.5a20.989,20.989,0,0,0,1.875,9.431,12.983,12.983,0,0,0,6.308,5.853q3.751,1.788,12.189,3.008t12.189,1.383V79.045Zm-393.811,0V67.826l97.792-135.281q-20.312,0-36.532.488t-25.605,3.9q-3.245,1.139-8.621,11.789a114.409,114.409,0,0,0-8.451,22.194h-11.933V-82.252h158.547v10.081l-98.194,136.42q4.1,0,11.956.163t15.03.162q8.371,0,17.936-.405T-5149,63.11q7-.813,11.188-4.553a26.931,26.931,0,0,0,6.576-8.942q2.224-4.715,5.809-14.227a157.9,157.9,0,0,0,5.465-16.991h11.933V79.045Zm-121.04,0V67.176q4.431-.326,8.693-.813a31.5,31.5,0,0,0,7.332-1.626q5.454-1.952,7.671-5.609t2.215-9.675V-45.18a18.309,18.309,0,0,0-2.727-10,21.993,21.993,0,0,0-6.819-6.909,37.122,37.122,0,0,0-9.292-3.74,63.011,63.011,0,0,0-11.337-2.276v-11.87l83.536-4.228,2.556,2.44v129.1a17.532,17.532,0,0,0,2.558,9.674,15.321,15.321,0,0,0,7.331,5.936,59.652,59.652,0,0,0,7.5,2.6,53.736,53.736,0,0,0,8.524,1.626V79.045Zm25.486-200.727q-9.973-8.7-9.973-21.056t9.973-21.138a34.791,34.791,0,0,1,23.782-8.781,34.475,34.475,0,0,1,23.7,8.781q9.889,8.781,9.888,21.138t-9.973,21.056a34.745,34.745,0,0,1-23.612,8.7A34.973,34.973,0,0,1-5371.337-121.683Z"
        transform="translate(5812 204)" stroke="#fff" stroke-width="5" />
</svg>