<svg xmlns="http://www.w3.org/2000/svg" viewBox="0 0 3914 230">
    <g fill="currentColor">
        <path
            d="M 3913.5 229.5 L 0.5 229.5 L 0.5 0.5 L 37.4995002746582 0.5 L 37.4995002746582 20.0004997253418 L 37.4995002746582 20.5004997253418 L 37.9995002746582 20.5004997253418 L 75.50050354003906 20.5004997253418 L 75.50050354003906 39.9995002746582 L 75.50050354003906 40.4995002746582 L 76.00050354003906 40.4995002746582 L 114 40.4995002746582 L 114.5 40.4995002746582 L 114.5 39.9995002746582 L 114.5 20.5004997253418 L 152 20.5004997253418 L 190.0005035400391 20.5004997253418 L 190.5005035400391 20.5004997253418 L 190.5005035400391 20.0004997253418 L 190.5005035400391 0.5 L 227.5 0.5 L 227.5 20.0004997253418 L 227.5 20.5004997253418 L 228 20.5004997253418 L 265.5 20.5004997253418 L 265.5 39.9995002746582 L 265.5 40.4995002746582 L 266 40.4995002746582 L 304.00048828125 40.4995002746582 L 341.5 40.4995002746582 L 341.5 60 L 341.5 60.5 L 342 60.5 L 379.5 60.5 L 379.5 80 L 379.5 80.5 L 380 80.5 L 418.00048828125 80.5 L 456 80.5 L 456.5 80.5 L 456.5 80 L 456.5 60.5 L 494 60.5 L 494.5 60.5 L 494.5 60 L 494.5 20.5004997253418 L 531.99951171875 20.5004997253418 L 532.49951171875 20.5004997253418 L 532.49951171875 20.0004997253418 L 532.49951171875 0.5 L 569.50048828125 0.5 L 569.50048828125 20.0004997253418 L 569.50048828125 20.5004997253418 L 570.00048828125 20.5004997253418 L 608 20.5004997253418 L 608.5 20.5004997253418 L 608.5 20.0004997253418 L 608.5 0.5 L 645.49951171875 0.5 L 645.49951171875 60 L 645.49951171875 60.5 L 645.99951171875 60.5 L 684.00048828125 60.5 L 684.50048828125 60.5 L 684.50048828125 60 L 684.50048828125 40.4995002746582 L 722 40.4995002746582 L 759.99951171875 40.4995002746582 L 760.49951171875 40.4995002746582 L 760.49951171875 39.9995002746582 L 760.49951171875 20.5004997253418 L 797.50048828125 20.5004997253418 L 797.50048828125 39.9995002746582 L 797.50048828125 40.4995002746582 L 798.00048828125 40.4995002746582 L 836 40.4995002746582 L 836.5 40.4995002746582 L 836.5 39.9995002746582 L 836.5 20.5004997253418 L 873.99951171875 20.5004997253418 L 874.49951171875 20.5004997253418 L 874.49951171875 20.0004997253418 L 874.49951171875 0.5 L 911.50048828125 0.5 L 911.50048828125 39.9995002746582 L 911.50048828125 40.4995002746582 L 912.00048828125 40.4995002746582 L 950 40.4995002746582 L 950.5 40.4995002746582 L 950.5 39.9995002746582 L 950.5 20.5004997253418 L 987.49951171875 20.5004997253418 L 987.49951171875 60 L 987.49951171875 60.5 L 987.99951171875 60.5 L 1026.00048828125 60.5 L 1026.50048828125 60.5 L 1026.50048828125 60 L 1026.50048828125 40.4995002746582 L 1064 40.4995002746582 L 1064.5 40.4995002746582 L 1064.5 39.9995002746582 L 1064.5 20.5004997253418 L 1102 20.5004997253418 L 1102.5 20.5004997253418 L 1102.5 20.0004997253418 L 1102.5 0.5 L 1140.00048828125 0.5 L 1177.5 0.5 L 1177.5 20.0004997253418 L 1177.5 20.5004997253418 L 1178 20.5004997253418 L 1215.5 20.5004997253418 L 1215.5 39.9995002746582 L 1215.5 40.4995002746582 L 1216 40.4995002746582 L 1254.00048828125 40.4995002746582 L 1254.50048828125 40.4995002746582 L 1254.50048828125 39.9995002746582 L 1254.50048828125 20.5004997253418 L 1291.5 20.5004997253418 L 1291.5 39.9995002746582 L 1291.5 40.4995002746582 L 1292 40.4995002746582 L 1330 40.4995002746582 L 1330.5 40.4995002746582 L 1330.5 39.9995002746582 L 1330.5 20.5004997253418 L 1368.00048828125 20.5004997253418 L 1368.50048828125 20.5004997253418 L 1368.50048828125 20.0004997253418 L 1368.50048828125 0.5 L 1405.5 0.5 L 1405.5 20.0004997253418 L 1405.5 20.5004997253418 L 1406 20.5004997253418 L 1444 20.5004997253418 L 1481.49951171875 20.5004997253418 L 1481.49951171875 39.9995002746582 L 1481.49951171875 40.4995002746582 L 1481.99951171875 40.4995002746582 L 1520.00048828125 40.4995002746582 L 1558 40.4995002746582 L 1558.5 40.4995002746582 L 1558.5 39.9995002746582 L 1558.5 20.5004997253418 L 1595.99951171875 20.5004997253418 L 1596.49951171875 20.5004997253418 L 1596.49951171875 20.0004997253418 L 1596.49951171875 0.5 L 1634.00048828125 0.5 L 1671.5 0.5 L 1671.5 20.0004997253418 L 1671.5 20.5004997253418 L 1672 20.5004997253418 L 1709.49951171875 20.5004997253418 L 1709.49951171875 39.9995002746582 L 1709.49951171875 40.4995002746582 L 1709.99951171875 40.4995002746582 L 1748.00048828125 40.4995002746582 L 1786 40.4995002746582 L 1786.5 40.4995002746582 L 1786.5 39.9995002746582 L 1786.5 20.5004997253418 L 1823.99951171875 20.5004997253418 L 1862.00048828125 20.5004997253418 L 1862.50048828125 20.5004997253418 L 1862.50048828125 20.0004997253418 L 1862.50048828125 0.5 L 1899.5 0.5 L 1899.5 20.0004997253418 L 1899.5 20.5004997253418 L 1900 20.5004997253418 L 1937.5 20.5004997253418 L 1937.5 39.9995002746582 L 1937.5 40.4995002746582 L 1938 40.4995002746582 L 1976.00048828125 40.4995002746582 L 1976.50048828125 40.4995002746582 L 1976.50048828125 39.9995002746582 L 1976.50048828125 20.5004997253418 L 2013.5 20.5004997253418 L 2013.5 39.9995002746582 L 2013.5 40.4995002746582 L 2014 40.4995002746582 L 2052 40.4995002746582 L 2052.5 40.4995002746582 L 2052.5 39.9995002746582 L 2052.5 20.5004997253418 L 2090.00048828125 20.5004997253418 L 2090.50048828125 20.5004997253418 L 2090.50048828125 20.0004997253418 L 2090.50048828125 0.5 L 2128 0.5 L 2165.5 0.5 L 2165.5 20.0004997253418 L 2165.5 20.5004997253418 L 2166 20.5004997253418 L 2203.50048828125 20.5004997253418 L 2203.50048828125 39.9995002746582 L 2203.50048828125 40.4995002746582 L 2204.00048828125 40.4995002746582 L 2241.50048828125 40.4995002746582 L 2241.50048828125 60 L 2241.50048828125 60.5 L 2242.00048828125 60.5 L 2280 60.5 L 2280.5 60.5 L 2280.5 60 L 2280.5 20.5004997253418 L 2317.50048828125 20.5004997253418 L 2317.50048828125 39.9995002746582 L 2317.50048828125 40.4995002746582 L 2318.00048828125 40.4995002746582 L 2356.00048828125 40.4995002746582 L 2356.50048828125 40.4995002746582 L 2356.50048828125 39.9995002746582 L 2356.50048828125 0.5 L 2393.5 0.5 L 2393.5 20.0004997253418 L 2393.5 20.5004997253418 L 2394 20.5004997253418 L 2431.49951171875 20.5004997253418 L 2431.49951171875 39.9995002746582 L 2431.49951171875 40.4995002746582 L 2431.99951171875 40.4995002746582 L 2470.00048828125 40.4995002746582 L 2470.50048828125 40.4995002746582 L 2470.50048828125 39.9995002746582 L 2470.50048828125 20.5004997253418 L 2507.5 20.5004997253418 L 2507.5 39.9995002746582 L 2507.5 40.4995002746582 L 2508 40.4995002746582 L 2545.99951171875 40.4995002746582 L 2583.50048828125 40.4995002746582 L 2583.50048828125 60 L 2583.50048828125 60.5 L 2584.00048828125 60.5 L 2622 60.5 L 2622.5 60.5 L 2622.5 60 L 2622.5 0.5 L 2659.49951171875 0.5 L 2659.49951171875 20.0004997253418 L 2659.49951171875 20.5004997253418 L 2659.99951171875 20.5004997253418 L 2698.00048828125 20.5004997253418 L 2698.50048828125 20.5004997253418 L 2698.50048828125 20.0004997253418 L 2698.50048828125 0.5 L 2735.5 0.5 L 2735.5 20.0004997253418 L 2735.5 20.5004997253418 L 2736 20.5004997253418 L 2773.5 20.5004997253418 L 2773.5 60 L 2773.5 60.5 L 2774 60.5 L 2811.50048828125 60.5 L 2811.50048828125 80 L 2811.50048828125 80.5 L 2812.00048828125 80.5 L 2850 80.5 L 2888 80.5 L 2888.5 80.5 L 2888.5 80 L 2888.5 60.5 L 2926.00048828125 60.5 L 2926.50048828125 60.5 L 2926.50048828125 60 L 2926.50048828125 40.4995002746582 L 2964 40.4995002746582 L 3002 40.4995002746582 L 3002.5 40.4995002746582 L 3002.5 39.9995002746582 L 3002.5 20.5004997253418 L 3040.00048828125 20.5004997253418 L 3040.50048828125 20.5004997253418 L 3040.50048828125 20.0004997253418 L 3040.50048828125 0.5 L 3077.5 0.5 L 3077.5 20.0004997253418 L 3077.5 20.5004997253418 L 3078 20.5004997253418 L 3116 20.5004997253418 L 3153.50048828125 20.5004997253418 L 3153.50048828125 39.9995002746582 L 3153.50048828125 40.4995002746582 L 3154.00048828125 40.4995002746582 L 3192.00048828125 40.4995002746582 L 3192.50048828125 40.4995002746582 L 3192.50048828125 39.9995002746582 L 3192.50048828125 20.5004997253418 L 3230 20.5004997253418 L 3230.5 20.5004997253418 L 3230.5 20.0004997253418 L 3230.5 0.5 L 3267.99951171875 0.5 L 3305.50048828125 0.5 L 3305.50048828125 20.0004997253418 L 3305.50048828125 20.5004997253418 L 3306.00048828125 20.5004997253418 L 3343.5 20.5004997253418 L 3343.5 39.9995002746582 L 3343.5 40.4995002746582 L 3344 40.4995002746582 L 3381.99951171875 40.4995002746582 L 3420.00048828125 40.4995002746582 L 3420.50048828125 40.4995002746582 L 3420.50048828125 39.9995002746582 L 3420.50048828125 20.5004997253418 L 3458 20.5004997253418 L 3495.99951171875 20.5004997253418 L 3496.49951171875 20.5004997253418 L 3496.49951171875 20.0004997253418 L 3496.49951171875 0.5 L 3533.50048828125 0.5 L 3533.50048828125 20.0004997253418 L 3533.50048828125 20.5004997253418 L 3534.00048828125 20.5004997253418 L 3571.5 20.5004997253418 L 3571.5 39.9995002746582 L 3571.5 40.4995002746582 L 3572 40.4995002746582 L 3610 40.4995002746582 L 3610.5 40.4995002746582 L 3610.5 39.9995002746582 L 3610.5 20.5004997253418 L 3647.50048828125 20.5004997253418 L 3647.50048828125 39.9995002746582 L 3647.50048828125 40.4995002746582 L 3648.00048828125 40.4995002746582 L 3686 40.4995002746582 L 3686.5 40.4995002746582 L 3686.5 39.9995002746582 L 3686.5 20.5004997253418 L 3724 20.5004997253418 L 3724.5 20.5004997253418 L 3724.5 20.0004997253418 L 3724.5 0.5 L 3762.00048828125 0.5 L 3799.5 0.5 L 3799.5 20.0004997253418 L 3799.5 20.5004997253418 L 3800 20.5004997253418 L 3837.5 20.5004997253418 L 3837.5 39.9995002746582 L 3837.5 40.4995002746582 L 3838 40.4995002746582 L 3875.50048828125 40.4995002746582 L 3875.50048828125 60 L 3875.50048828125 60.5 L 3876.00048828125 60.5 L 3913.5 60.5 L 3913.5 229.5 Z"
            stroke="currentColor" />
    </g>
</svg>