<svg xmlns="http://www.w3.org/2000/svg"
    viewBox="0 0 3923.101 352.101">
    <path
        d="M36.9,320V64H73.8V79h37V96h36.9v15h36.9v34h36.9V95h73.9V58h36.9V73h36.9V58h37V30h36.9V64H480V30h36.9V62h36.9V84h26.6V32h36.9v70h36.9V32h37V64h36.9v50h20.507V82H765V64h73.8V38h47.4V64h40.783V87H960v44h26.5V112h47.3v48h26.6V131h36.9v61h36.9l1-61h37v32h10.3V99h37v64h36.44V119h62.86V62h47.4v87h36.9V94H1440v23h26.5V62h37V29h110.7V0h37V64h36.9V32H1725v83h36.9V64h36.9v56h37V96h36.9v56h36.9V64h36.9V0h37V120h18.3V96h18.6V32h36.9v88h36.9V0h37V64h36.9V32h55.2V64h18.6V96h18.3V32h37V64h36.9V50h35.6V88l38.2,1v32h36.9V90h74V66.4h73.788V42.488H2650.3V88l30.057,1V57H2721.9V89h18.5V64h49.359V32H2852.3V64h36.9V32h17.3V0h37V64h19.6V96H3000V64h110.2V96h54.3v35h44.7v15h48v13l36.9,1V102H3331V64h100V23h84.8l1.1,41h36.9V23h35.8V64h36.9V0h68.376V-32.1H3774.2V0h37V-32.1h36.9V-6.895h38.1V-20.3h36.9V32H3960V320Zm0,0Z"
        transform="translate(-36.899 32.101)" fill="currentColor" />
</svg>